<svg id="visual" viewBox="0 0 900 600" width="900" height="600" xmlns="http://www.w3.org/2000/svg" xmlns:xlink="http://www.w3.org/1999/xlink" version="1.1"><rect width="900" height="600" fill="#001122"></rect><g><g transform="translate(207 25)"><path d="M91.6 -53.1C110.1 -20.9 110.5 21.6 92.2 52.2C73.9 82.8 37 101.5 1.1 100.8C-34.7 100.2 -69.5 80.2 -88.1 49.3C-106.8 18.5 -109.4 -23.1 -92.1 -54.6C-74.7 -86.2 -37.4 -107.6 -0.4 -107.4C36.5 -107.2 73.1 -85.2 91.6 -53.1Z" stroke="#02cb9f" fill="none" stroke-width="20"></path></g><g transform="translate(654 315)"><path d="M74.1 -42.9C89.3 -16.5 90.2 18 75.4 43.2C60.7 68.4 30.3 84.2 0.4 84C-29.5 83.7 -59.1 67.5 -75 41.6C-90.8 15.8 -93 -19.6 -78.2 -45.7C-63.4 -71.9 -31.7 -88.8 -1.1 -88.1C29.5 -87.5 59 -69.3 74.1 -42.9Z" stroke="#02cb9f" fill="none" stroke-width="20"></path></g><g transform="translate(176 345)"><path d="M65.8 -38.8C78.3 -16.2 76.9 13.7 63.6 35.8C50.3 58 25.2 72.3 -0.6 72.7C-26.4 73.1 -52.9 59.4 -66.4 37.2C-79.9 14.9 -80.4 -15.9 -67.2 -38.9C-54 -62 -27 -77.2 -0.2 -77.1C26.6 -77 53.2 -61.5 65.8 -38.8Z" stroke="#02cb9f" fill="none" stroke-width="20"></path></g><g transform="translate(499 559)"><path d="M57.5 -33C68.5 -14.2 67.1 11.9 55.5 31.8C43.8 51.8 21.9 65.6 -0.5 65.9C-23 66.2 -46 53 -57.3 33.2C-68.7 13.4 -68.5 -13 -57 -32.1C-45.5 -51.1 -22.7 -62.8 0.3 -63C23.3 -63.1 46.6 -51.7 57.5 -33Z" stroke="#02cb9f" fill="none" stroke-width="20"></path></g><g transform="translate(868 141)"><path d="M76.8 -46.1C91.3 -19.1 89.3 15.6 73.7 41.7C58.2 67.7 29.1 85.1 -0.7 85.5C-30.5 85.9 -61.1 69.4 -75.8 43.8C-90.5 18.3 -89.3 -16.3 -74 -43.7C-58.8 -71.2 -29.4 -91.5 0.9 -92C31.1 -92.5 62.2 -73.2 76.8 -46.1Z" stroke="#02cb9f" fill="none" stroke-width="20"></path></g></g></svg>